<svg xmlns="http://www.w3.org/2000/svg" width="36" height="36" viewBox="0 0 36 36" fill="none">
    <path fillRule="evenodd" clipRule="evenodd" d="M1.44967 1.44973C1.9935 0.906062 2.73099 0.600647 3.49997 0.600647C4.26894 0.600647 5.00644 0.906062 5.55027 1.44973L18 13.8994L30.4497 1.44973C30.7172 1.17275 31.0372 0.95182 31.391 0.799834C31.7448 0.647848 32.1253 0.567848 32.5104 0.564502C32.8955 0.561156 33.2773 0.63453 33.6337 0.780344C33.9901 0.926159 34.3139 1.14149 34.5862 1.41378C34.8585 1.68607 35.0738 2.00986 35.2196 2.36626C35.3655 2.72266 35.4388 3.10453 35.4355 3.48959C35.4321 3.87465 35.3521 4.25519 35.2002 4.609C35.0482 4.96281 34.8272 5.28281 34.5503 5.55033L22.1006 18L34.5503 30.4497C35.0785 30.9967 35.3708 31.7292 35.3642 32.4896C35.3576 33.25 35.0526 33.9773 34.5149 34.515C33.9773 35.0527 33.2499 35.3577 32.4895 35.3643C31.7292 35.3709 30.9966 35.0786 30.4497 34.5503L18 22.1006L5.55027 34.5503C5.00332 35.0786 4.27077 35.3709 3.5104 35.3643C2.75003 35.3577 2.02268 35.0527 1.48499 34.515C0.947309 33.9773 0.642319 33.25 0.635711 32.4896C0.629104 31.7292 0.921409 30.9967 1.44967 30.4497L13.8994 18L1.44967 5.55033C0.906001 5.0065 0.600586 4.269 0.600586 3.50003C0.600586 2.73105 0.906001 1.99356 1.44967 1.44973Z" fill="white"/>
</svg>