<svg xmlns="http://www.w3.org/2000/svg" width="40" height="40" viewBox="0 0 40 40" fill="none">
    <path d="M21.1991 2.77312C20.9722 2.59613 20.6928 2.5 20.4051 2.5C20.1174 2.5 19.838 2.59613 19.6112 2.77312L1.25 17.0914L2.83789 19.0997L5.08333 17.3489V33.1666C5.08472 33.8439 5.35441 34.4932 5.83337 34.9721C6.31233 35.4511 6.96154 35.7208 7.63889 35.7222H33.1944C33.8718 35.7209 34.5211 35.4513 35.0001 34.9723C35.4791 34.4933 35.7487 33.844 35.75 33.1666V17.3605L37.9954 19.111L39.5833 17.1026L21.1991 2.77312ZM22.9722 33.1666H17.8611V22.9444H22.9722V33.1666ZM25.5278 33.1666V22.9444C25.527 22.2668 25.2575 21.6173 24.7784 21.1382C24.2993 20.6591 23.6498 20.3896 22.9722 20.3888H17.8611C17.1835 20.3895 16.5339 20.659 16.0548 21.1381C15.5757 21.6172 15.3062 22.2668 15.3056 22.9444V33.1666H7.63889V15.3563L20.4167 5.4024L33.1944 15.3697V33.1666H25.5278Z" fill="#1E1E1E"/>
</svg>