<svg xmlns="http://www.w3.org/2000/svg" width="40" height="40" viewBox="0 0 40 40" fill="none">
    <path d="M20 11.5152C18.1665 9.18155 15.3401 6.84795 8.33532 6.6767C7.87522 6.66547 7.5 7.03919 7.5 7.49942C7.5 10.9136 7.5 23.839 7.5 27.6617C7.5 28.1218 7.87525 28.4833 8.33523 28.4983C15.3401 28.7273 18.1665 31.833 20 34.1667M20 11.5152C21.8335 9.18155 24.6598 6.84795 31.6647 6.6767C32.1248 6.66547 32.5 7.03079 32.5 7.49102C32.5 11.3075 32.5 23.844 32.5 27.6605C32.5 28.1207 32.1248 28.4833 31.6648 28.4983C24.66 28.7273 21.8335 31.833 20 34.1667M20 11.5152V34.1667" stroke="black" stroke-width="2" stroke-linejoin="round"/>
    <path d="M32.0589 10H35.8334C36.2935 10 36.6667 10.3731 36.6667 10.8333V32.565C36.6667 33.2393 35.8722 33.6873 35.2559 33.4135C33.9307 32.8247 31.7192 32.1053 28.8235 32.1053C23.9215 32.1053 20 35 20 35C20 35 16.0785 32.1053 11.1765 32.1053C8.28079 32.1053 6.06931 32.8247 4.74416 33.4135C4.12784 33.6873 3.33337 33.2393 3.33337 32.565V10.8333C3.33337 10.3731 3.70647 10 4.16671 10H7.94122" stroke="black" stroke-width="2" stroke-linejoin="round"/>
</svg>