<svg xmlns="http://www.w3.org/2000/svg" width="40" height="40" viewBox="0 0 40 40" fill="none">
    <path fillRule="evenodd" clipRule="evenodd" d="M20 13.75C18.3424 13.75 16.7527 14.4085 15.5806 15.5806C14.4085 16.7527 13.75 18.3424 13.75 20C13.75 21.6576 14.4085 23.2473 15.5806 24.4194C16.7527 25.5915 18.3424 26.25 20 26.25C21.6576 26.25 23.2473 25.5915 24.4194 24.4194C25.5915 23.2473 26.25 21.6576 26.25 20C26.25 18.3424 25.5915 16.7527 24.4194 15.5806C23.2473 14.4085 21.6576 13.75 20 13.75ZM16.25 20C16.25 19.0054 16.6451 18.0516 17.3483 17.3483C18.0516 16.6451 19.0054 16.25 20 16.25C20.9946 16.25 21.9484 16.6451 22.6516 17.3483C23.3549 18.0516 23.75 19.0054 23.75 20C23.75 20.9946 23.3549 21.9484 22.6516 22.6516C21.9484 23.3549 20.9946 23.75 20 23.75C19.0054 23.75 18.0516 23.3549 17.3483 22.6516C16.6451 21.9484 16.25 20.9946 16.25 20Z" fill="black"/>
    <path fillRule="evenodd" clipRule="evenodd" d="M19.9584 2.08334C19.2167 2.08334 18.5984 2.08334 18.0917 2.11668C17.5738 2.13824 17.063 2.24524 16.58 2.43334C16.0238 2.66349 15.5183 3.00097 15.0925 3.42649C14.6667 3.85201 14.3289 4.35725 14.0984 4.91334C13.8567 5.49668 13.7917 6.11334 13.765 6.78334C13.7624 7.02838 13.6975 7.26872 13.5765 7.48182C13.4555 7.69492 13.2824 7.8738 13.0734 8.00168C12.8582 8.11918 12.6166 8.18006 12.3715 8.17861C12.1263 8.17715 11.8855 8.1134 11.6717 7.99334C11.0784 7.68001 10.5117 7.42834 9.88503 7.34501C9.28827 7.26651 8.6819 7.30633 8.10052 7.46218C7.51915 7.61803 6.97417 7.88687 6.4967 8.25334C6.09299 8.57814 5.74556 8.96724 5.46836 9.40501C5.18503 9.82834 4.87503 10.3633 4.50503 11.005L4.46336 11.0783C4.0917 11.72 3.78336 12.255 3.56003 12.7117C3.3267 13.1883 3.14336 13.6583 3.0767 14.1783C2.9177 15.3833 3.24383 16.6021 3.98337 17.5667C4.36837 18.0683 4.87003 18.4333 5.4367 18.79C5.64797 18.9149 5.82398 19.0915 5.94819 19.3032C6.0724 19.5149 6.14071 19.7547 6.1467 20C6.14071 20.2454 6.0724 20.4852 5.94819 20.6968C5.82398 20.9085 5.64797 21.0851 5.4367 21.21C4.87003 21.5667 4.37003 21.9317 3.98337 22.4333C3.61689 22.9108 3.34806 23.4558 3.1922 24.0372C3.03635 24.6185 2.99654 25.2249 3.07503 25.8217C3.14337 26.3417 3.32503 26.8117 3.55836 27.2883C3.78337 27.745 4.0917 28.28 4.46336 28.9217L4.50503 28.995C4.87503 29.6367 5.18503 30.1717 5.46836 30.595C5.76336 31.0333 6.08003 31.4283 6.4967 31.745C6.97405 32.1118 7.51897 32.3809 8.10035 32.5371C8.68172 32.6932 9.28816 32.7333 9.88503 32.655C10.5117 32.5717 11.0784 32.3217 11.6717 32.0067C11.8852 31.8868 12.1257 31.8231 12.3706 31.8216C12.6155 31.8202 12.8568 31.881 13.0717 31.9983C13.2819 32.1252 13.4561 32.3038 13.5778 32.5171C13.6994 32.7303 13.7645 32.9712 13.7667 33.2167C13.7917 33.8867 13.8567 34.5033 14.1 35.0867C14.3302 35.6429 14.6677 36.1484 15.0932 36.5742C15.5187 37 16.0239 37.3378 16.58 37.5683C17.0634 37.7683 17.5634 37.8467 18.0917 37.8817C18.5984 37.9167 19.2167 37.9167 19.9584 37.9167H20.0417C20.7834 37.9167 21.4017 37.9167 21.9084 37.8833C22.4384 37.8467 22.9367 37.7683 23.42 37.5667C23.9763 37.3365 24.4817 36.9991 24.9076 36.5735C25.3334 36.148 25.6712 35.6428 25.9017 35.0867C26.1434 34.5033 26.2084 33.8867 26.235 33.2167C26.2374 32.9714 26.3022 32.7307 26.4231 32.5173C26.5441 32.3038 26.7174 32.1247 26.9267 31.9967C27.142 31.8794 27.3836 31.8188 27.6288 31.8206C27.874 31.8223 28.1147 31.8864 28.3284 32.0067C28.9217 32.32 29.4884 32.5717 30.115 32.6533C31.32 32.8123 32.5388 32.4862 33.5034 31.7467C33.92 31.4267 34.2367 31.0333 34.5317 30.595C34.815 30.1717 35.125 29.6367 35.495 28.995L35.5367 28.9217C35.9084 28.28 36.2167 27.745 36.44 27.2883C36.6734 26.8117 36.8567 26.34 36.9234 25.8217C37.0824 24.6167 36.7562 23.3979 36.0167 22.4333C35.6317 21.9317 35.13 21.5667 34.5634 21.21C34.3521 21.0851 34.1761 20.9085 34.0519 20.6968C33.9277 20.4852 33.8594 20.2454 33.8534 20C33.8534 19.5367 34.1067 19.0767 34.5634 18.79C35.13 18.4333 35.63 18.0683 36.0167 17.5667C36.3832 17.0892 36.652 16.5442 36.8079 15.9629C36.9637 15.3815 37.0035 14.7751 36.925 14.1783C36.8457 13.6662 36.6824 13.1706 36.4417 12.7117C36.1571 12.1579 35.8553 11.6132 35.5367 11.0783L35.495 11.005C35.1906 10.4618 34.8693 9.92823 34.5317 9.40501C34.2545 8.96771 33.9071 8.57915 33.5034 8.25501C33.026 7.88825 32.4811 7.61911 31.8997 7.46297C31.3183 7.30683 30.7119 7.26675 30.115 7.34501C29.4884 7.42834 28.9217 7.67834 28.3284 7.99334C28.1148 8.1131 27.8743 8.17669 27.6294 8.17815C27.3846 8.1796 27.1434 8.11888 26.9284 8.00168C26.7187 7.87421 26.5449 7.6955 26.4233 7.48237C26.3018 7.26924 26.2364 7.02869 26.2334 6.78334C26.2084 6.11334 26.1434 5.49668 25.9 4.91334C25.6699 4.35709 25.3324 3.85163 24.9069 3.42582C24.4814 3.00001 23.9761 2.6622 23.42 2.43168C22.9367 2.23168 22.4367 2.15334 21.9084 2.11834C21.4017 2.08334 20.7834 2.08334 20.0417 2.08334H19.9584ZM17.5367 4.74168C17.665 4.68834 17.86 4.64001 18.2617 4.61168C18.6734 4.58334 19.2067 4.58334 20 4.58334C20.7934 4.58334 21.3267 4.58334 21.7384 4.61168C22.14 4.64001 22.335 4.68834 22.4634 4.74168C22.975 4.95334 23.38 5.35834 23.5917 5.87001C23.6584 6.03001 23.7134 6.28168 23.735 6.87668C23.785 8.19668 24.4667 9.46834 25.6767 10.1667C26.8867 10.8667 28.3284 10.82 29.4967 10.2033C30.0234 9.92501 30.2684 9.84668 30.4417 9.82501C30.9893 9.75265 31.5432 9.90073 31.9817 10.2367C32.0917 10.3217 32.2317 10.4667 32.4567 10.8C32.6884 11.1433 32.955 11.605 33.3517 12.2917C33.7484 12.9783 34.0134 13.4417 34.195 13.8117C34.3734 14.1733 34.4284 14.3667 34.445 14.505C34.5174 15.0526 34.3693 15.6065 34.0334 16.045C33.9267 16.1833 33.7367 16.3567 33.2334 16.6733C32.1134 17.3767 31.3534 18.6033 31.3534 20C31.3534 21.3967 32.1134 22.6233 33.2334 23.3267C33.7367 23.6433 33.9267 23.8167 34.0334 23.955C34.37 24.3933 34.5167 24.9467 34.445 25.495C34.4284 25.6333 34.3717 25.8283 34.195 26.1883C34.0134 26.56 33.7484 27.0217 33.3517 27.7083C32.955 28.395 32.6867 28.8567 32.4567 29.2C32.2317 29.5333 32.0917 29.6783 31.9817 29.7633C31.5432 30.0993 30.9893 30.2474 30.4417 30.175C30.2684 30.1533 30.025 30.075 29.4967 29.7967C28.33 29.18 26.8867 29.1333 25.6767 29.8317C24.4667 30.5317 23.785 31.8033 23.735 33.1233C23.7134 33.7183 23.6584 33.97 23.5917 34.13C23.487 34.383 23.3335 34.6129 23.1398 34.8065C22.9462 35.0001 22.7164 35.1536 22.4634 35.2583C22.335 35.3117 22.14 35.36 21.7384 35.3883C21.3267 35.4167 20.7934 35.4167 20 35.4167C19.2067 35.4167 18.6734 35.4167 18.2617 35.3883C17.86 35.36 17.665 35.3117 17.5367 35.2583C17.2837 35.1536 17.0538 35.0001 16.8602 34.8065C16.6666 34.6129 16.5131 34.383 16.4084 34.13C16.3417 33.97 16.2867 33.7183 16.265 33.1233C16.215 31.8033 15.5334 30.5317 14.3234 29.8333C13.1134 29.1333 11.6717 29.18 10.5034 29.7967C9.9767 30.075 9.7317 30.1533 9.55837 30.175C9.01076 30.2474 8.45683 30.0993 8.01837 29.7633C7.90837 29.6783 7.76837 29.5333 7.54337 29.2C7.22988 28.712 6.93141 28.2146 6.64837 27.7083C6.2517 27.0217 5.9867 26.5583 5.80503 26.1883C5.6267 25.8267 5.5717 25.6333 5.55503 25.495C5.48267 24.9474 5.63075 24.3935 5.9667 23.955C6.07336 23.8167 6.26337 23.6433 6.7667 23.3267C7.8867 22.6233 8.6467 21.3967 8.6467 20C8.6467 18.6033 7.8867 17.3767 6.7667 16.6733C6.26337 16.3567 6.07336 16.1833 5.9667 16.045C5.63075 15.6065 5.48267 15.0526 5.55503 14.505C5.5717 14.3667 5.62837 14.1717 5.80503 13.8117C5.9867 13.44 6.2517 12.9783 6.64837 12.2917C7.04503 11.605 7.31337 11.1433 7.54337 10.8C7.76837 10.4667 7.90837 10.3217 8.01837 10.2367C8.45683 9.90073 9.01076 9.75265 9.55837 9.82501C9.7317 9.84668 9.97503 9.92501 10.5034 10.2033C11.67 10.82 13.1134 10.8667 14.3234 10.1667C15.5334 9.46834 16.215 8.19668 16.265 6.87668C16.2867 6.28168 16.3417 6.03001 16.4084 5.87001C16.62 5.35834 17.025 4.95334 17.5367 4.74168Z" fill="black"/>
</svg>