<svg width="100" height="100" viewBox="0 0 100 100" fill="none" xmlns="http://www.w3.org/2000/svg">
<rect width="100" height="100" rx="20" fill="url(#paint0_linear_83_1622)"/>
<path d="M65.7031 63.0156C65.7031 61.4531 65.4427 60.0599 64.9219 58.8359C64.401 57.612 63.5417 56.5182 62.3438 55.5547C61.1719 54.5651 59.5833 53.6536 57.5781 52.8203C55.599 51.9609 53.125 51.1146 50.1562 50.2812C47.3177 49.474 44.7526 48.5885 42.4609 47.625C40.1693 46.6615 38.2031 45.5547 36.5625 44.3047C34.9479 43.0547 33.7109 41.5964 32.8516 39.9297C31.9922 38.237 31.5625 36.2708 31.5625 34.0312C31.5625 31.8438 32.0312 29.8516 32.9688 28.0547C33.9062 26.2578 35.2214 24.7083 36.9141 23.4062C38.6328 22.1042 40.651 21.1016 42.9688 20.3984C45.3125 19.6953 47.8776 19.3438 50.6641 19.3438C54.6484 19.3438 58.0859 20.099 60.9766 21.6094C63.8932 23.1198 66.1458 25.1641 67.7344 27.7422C69.349 30.2943 70.1562 33.1589 70.1562 36.3359H65.3516C65.3516 33.862 64.7656 31.6615 63.5938 29.7344C62.4479 27.7812 60.7812 26.2578 58.5938 25.1641C56.4323 24.0443 53.7891 23.4844 50.6641 23.4844C47.5391 23.4844 44.9089 23.9661 42.7734 24.9297C40.6641 25.8672 39.0625 27.1302 37.9688 28.7188C36.901 30.2812 36.3672 32.026 36.3672 33.9531C36.3672 35.3073 36.6276 36.5573 37.1484 37.7031C37.6693 38.8229 38.5156 39.8776 39.6875 40.8672C40.8854 41.8307 42.4609 42.7422 44.4141 43.6016C46.3672 44.4349 48.776 45.2292 51.6406 45.9844C54.6615 46.8177 57.3438 47.7422 59.6875 48.7578C62.0312 49.7734 64.0104 50.9453 65.625 52.2734C67.2396 53.5755 68.4635 55.099 69.2969 56.8438C70.1302 58.5885 70.5469 60.6198 70.5469 62.9375C70.5469 65.2552 70.0521 67.3385 69.0625 69.1875C68.099 71.0104 66.7318 72.5599 64.9609 73.8359C63.2161 75.112 61.1458 76.0885 58.75 76.7656C56.3802 77.4427 53.7891 77.7812 50.9766 77.7812C48.4505 77.7812 45.9375 77.4557 43.4375 76.8047C40.9375 76.1536 38.6458 75.151 36.5625 73.7969C34.5052 72.4167 32.8516 70.6458 31.6016 68.4844C30.3776 66.3229 29.7656 63.7448 29.7656 60.75H34.5312C34.5312 63.1458 35.013 65.1641 35.9766 66.8047C36.9401 68.4453 38.2161 69.7734 39.8047 70.7891C41.4193 71.8047 43.1901 72.5469 45.1172 73.0156C47.0703 73.4583 49.0234 73.6797 50.9766 73.6797C53.9714 73.6797 56.5625 73.237 58.75 72.3516C60.9635 71.4661 62.6693 70.2292 63.8672 68.6406C65.0911 67.026 65.7031 65.151 65.7031 63.0156Z" fill="#1E1E1E"/>
<defs>
<linearGradient id="paint0_linear_83_1622" x1="48.1884" y1="-18.2968" x2="52.3499" y2="123.061" gradientUnits="userSpaceOnUse">
<stop stop-color="white"/>
<stop offset="1" stop-color="#CC8F8F"/>
</linearGradient>
</defs>
</svg>
